Coordinates
version=1
nRows=8
nColumns=63
inDegrees=yes

Units are S.I. units (second, meters, Newtons, ...)
If the header above contains a line with 'inDegrees', this indicates whether rotational values are in degrees (yes) or radians (no).

endheader
time	pelvis_tilt	pelvis_list	pelvis_rotation	pelvis_tx	pelvis_ty	pelvis_tz	hip_flexion_r	hip_adduction_r	hip_rotation_r	knee_angle_r	knee_angle_r_beta	ankle_angle_r	subtalar_angle_r	mtp_angle_r	hip_flexion_l	hip_adduction_l	hip_rotation_l	knee_angle_l	knee_angle_l_beta	ankle_angle_l	subtalar_angle_l	mtp_angle_l	L5_S1_Flex_Ext	L5_S1_Lat_Bending	L5_S1_axial_rotation	L4_L5_Flex_Ext	L4_L5_Lat_Bending	L4_L5_axial_rotation	L3_L4_Flex_Ext	L3_L4_Lat_Bending	L3_L4_axial_rotation	L2_L3_Flex_Ext	L2_L3_Lat_Bending	L2_L3_axial_rotation	L1_L2_Flex_Ext	L1_L2_Lat_Bending	L1_L2_axial_rotation	L1_T12_Flex_Ext	L1_T12_Lat_Bending	L1_T12_axial_rotation	Abs_r3	Abs_r2	Abs_r1	Abs_t1	Abs_t2	neck_flexion	neck_bending	neck_rotation	arm_flex_r	arm_add_r	arm_rot_r	elbow_flex_r	pro_sup_r	wrist_flex_r	wrist_dev_r	arm_flex_l	arm_add_l	arm_rot_l	elbow_flex_l	pro_sup_l	wrist_flex_l	wrist_dev_l
      2.01666667	     -4.74510001	     -3.56655157	     78.79847362	      0.11194834	      0.93976685	      0.36399572	      1.30108842	     -2.11699668	    -13.75825386	      0.32143919	      0.00561017	     11.72162483	     16.86169846	      0.00000000	      3.91867183	      4.21828174	     -3.09854817	      4.42252368	      0.07718760	      2.85629774	    -17.63069426	      0.00000000	      0.21998760	     -0.02222010	      0.68969741	      0.40853896	     -0.02955274	      0.73280350	      0.36141762	     -0.05402596	      0.73280350	      0.25142382	     -0.05402596	      0.60348524	      0.20428048	     -0.04531123	      0.56037915	      0.12570091	     -0.03441894	      0.51727306	      1.57134940	     -0.25135824	      3.83589010	      0.00000000	      0.00000000	     18.36405344	     10.62259729	      0.49163733	     16.12190996	    -13.06068986	     56.83660395	     48.84024277	     88.03376229	      3.26976943	     -1.08810555	     13.87017797	    -15.30045578	     61.82708989	     33.86271145	     75.79679114	    -11.20061872	     -0.90732269
      2.03333333	     -4.76418630	     -3.69760351	     78.80768485	      0.11170593	      0.93966091	      0.36585582	      1.55421936	     -2.07886987	    -13.79479093	      0.31007840	      0.00541189	     11.66929074	     16.77424035	      0.00000000	      4.48321112	      4.15309860	     -3.26582363	      4.94495794	      0.08630580	      2.72656309	    -17.56993792	      0.00000000	      0.20108302	     -0.02061221	      0.76798300	      0.37343127	     -0.02741424	      0.81598194	      0.33035929	     -0.05011653	      0.81598194	      0.22981778	     -0.05011653	      0.67198513	      0.18672569	     -0.04203242	      0.62398619	      0.11489884	     -0.03192832	      0.57598725	      1.43631588	     -0.23316948	      4.27129107	      0.00000000	      0.00000000	     18.70471362	      9.80571449	     -0.05322301	     16.11600758	    -13.27068383	     57.45864475	     47.01761846	     88.12792391	     -0.79634038	     -3.13409873	     14.04526558	    -15.70289611	     61.64706455	     33.42298748	     74.29274057	     -8.00003499	      2.08972026
      2.05000000	     -4.73446544	     -3.71857703	     78.79329495	      0.11149929	      0.93974736	      0.36751306	      1.67382516	     -2.01979087	    -13.67682837	      0.28833659	      0.00503242	     11.50484929	     16.58721366	      0.00000000	      4.88206978	      4.07186178	     -3.49657965	      5.46205687	      0.09533088	      2.75283231	    -17.42422210	      0.00000000	      0.16695899	     -0.01687035	      0.85629224	      0.31005954	     -0.02243756	      0.90981050	      0.27429693	     -0.04101856	      0.90981050	      0.19081743	     -0.04101856	      0.74925571	      0.15503812	     -0.03440201	      0.69573744	      0.09540037	     -0.02613217	      0.64221918	      1.19257138	     -0.19084075	      4.76244054	      0.00000000	      0.00000000	     19.11182785	      8.95942649	     -0.60087406	     15.98430247	    -13.56001442	     57.89191695	     45.24853222	     88.12712406	     -5.14697441	     -4.70303008	     14.71366745	    -16.04475504	     63.46118569	     32.66570406	     76.48116902	     -6.29267630	      4.54521883
      2.06666667	     -4.71011660	     -3.65480973	     78.76680238	      0.11132503	      0.93988945	      0.36881276	      1.69282848	     -1.99205058	    -13.57575769	      0.27485617	      0.00479715	     11.43660187	     16.45944227	      0.00000000	      5.17086774	      4.02898369	     -3.70839356	      6.00047293	      0.10472801	      2.94572998	    -17.38670429	      0.00000000	      0.12813280	     -0.01118886	      0.95516453	      0.23795543	     -0.01488118	      1.01486231	      0.21050938	     -0.02720459	      1.01486231	      0.14644298	     -0.02720459	      0.83576896	      0.11898412	     -0.02281632	      0.77607118	      0.07321508	     -0.01733154	      0.71637340	      0.91523981	     -0.12657059	      5.31233855	      0.00000000	      0.00000000	     19.36490467	      7.87203997	     -0.81529231	     15.64346431	    -13.94317577	     58.08966094	     43.54370218	     88.16276636	     -9.40625731	     -6.05871322	     15.77877619	    -16.28003726	     66.82682348	     31.77482500	     81.88093003	     -5.33377277	      6.49108142
      2.08333333	     -4.66237106	     -3.55707590	     78.73162216	      0.11118606	      0.94007112	      0.36939145	      1.63764597	     -1.96532475	    -13.44047010	      0.26472652	      0.00462035	     11.39233675	     16.40679021	      0.00000000	      5.30494609	      3.99595595	     -3.83835095	      6.41001041	      0.11187579	      3.28750366	    -17.45293272	      0.00000000	      0.09583697	     -0.00395916	      1.03111350	      0.17797883	     -0.00526568	      1.09555809	      0.15745055	     -0.00962630	      1.09555809	      0.10953207	     -0.00962630	      0.90222431	      0.08899421	     -0.00807352	      0.83777972	      0.05476124	     -0.00613274	      0.77333512	      0.68455387	     -0.04478679	      5.73474395	      0.00000000	      0.00000000	     19.50613054	      6.86665950	     -0.95176250	     15.31249877	    -14.34126462	     58.62800598	     41.80579325	     88.25043190	    -12.89409155	     -7.00138317	     16.71481151	    -16.43659527	     70.66630931	     30.82782352	     87.24775841	     -5.36381366	      7.34787621
      2.10000000	     -4.54196375	     -3.42772942	     78.56467685	      0.11144521	      0.94043876	      0.36947053	      1.52702986	     -1.85736337	    -13.01698036	      0.25499639	      0.00445053	     11.34420381	     16.26976276	      0.00000000	      5.24423722	      3.87476239	     -4.03426763	      6.63372874	      0.11578041	      3.68674016	    -17.37290952	      0.00000000	      0.06767831	      0.00455922	      1.15800247	      0.12568540	      0.00606376	      1.23037762	      0.11118870	      0.01108528	      1.23037762	      0.07734955	      0.01108528	      1.01325216	      0.06284608	      0.00929716	      0.94087700	      0.03867139	      0.00706223	      0.86850185	      0.48341943	      0.05157478	      6.44046231	      0.00000000	      0.00000000	     19.58876939	      6.01923398	     -1.53366735	     15.17713759	    -14.81540760	     60.36545297	     39.98965379	     87.98637357	    -16.84847860	     -7.80677756	     18.28174175	    -16.23098665	     79.13331713	     28.94405971	     87.65665622	     -9.32600311	      5.56182282
      2.11666667	     -4.43132666	     -3.33325003	     78.45475402	      0.11179059	      0.94066295	      0.36882996	      1.41050124	     -1.76013060	    -12.65147554	      0.24860057	      0.00433890	     11.41724445	     16.24393325	      0.00000000	      5.17593231	      3.76401242	     -4.30279045	      6.89469148	      0.12033507	      4.02495328	    -17.34209437	      0.00000000	      0.05425884	      0.01400917	      1.20948566	      0.10076410	      0.01863220	      1.28507852	      0.08914185	      0.03406190	      1.28507852	      0.06201243	      0.03406190	      1.05829996	      0.05038476	      0.02856751	      0.98270710	      0.03100350	      0.02170021	      0.90711425	      0.38756549	      0.15847457	      6.72679642	      0.00000000	      0.00000000	     19.47491954	      5.37453522	     -1.40967970	     15.10439061	    -15.08340778	     61.90314951	     38.23364877	     87.97951370	    -18.55835290	     -7.65797786	     18.53202491	    -16.05699268	     84.00179653	     27.20779169	     87.50634774	    -14.39212897	      3.68249133
      2.13333333	     -4.41757493	     -3.26128726	     78.21867116	      0.11275693	      0.94064584	      0.36771456	      1.31460026	     -1.73895847	    -12.11701391	      0.24705459	      0.00431192	     11.61098378	     16.25904330	      0.00000000	      4.99507582	      3.72350681	     -4.93527532	      6.98679823	      0.12194263	      4.08215833	    -17.20882421	      0.00000000	      0.05056140	      0.00276207	      1.24085844	      0.09389757	      0.00367355	      1.31841209	      0.08306732	      0.00671569	      1.31841209	      0.05778662	      0.00671569	      1.08575114	      0.04695131	      0.00563241	      1.00819748	      0.02889078	      0.00427845	      0.93064383	      0.36115500	      0.03124508	      6.90128239	      0.00000000	      0.00000000	     19.30535746	      4.94625631	     -1.48938756	     14.92888700	    -15.02061673	     62.80732365	     36.56075068	     87.91878164	    -18.61370933	     -6.83367052	     17.54671651	    -16.32365070	     84.19924053	     26.03919087	     87.03686829	    -19.57657505	      1.95480989
